# xmcd CD database file
# Copyright (C) 1995-1998 Ti Kan
#
# Track frame offsets:
#	183
#	13983
#	25683
#	39808
#	52483
#	63158
#	75033
#	89333
#	99458
#	113133
#	125208
#	137033
#	146808
#	165108
#	181058
#	190133
#	203858
#	217683
#	233458
#	243083
#
# Disc length: 3402 seconds
#
# Revision: 2
# Processed by: cddbd v1.4PL0 Copyright (c) Steve Scherf et al.
# Submitted via: CDex 1.30Release
#
DISCID=fc0d4814
DTITLE=Charley Pride - 20 of the best
DYEAR=1900
DGENRE=Country
TTITLE0=All I Have To Offer You Is Me
TTITLE1=Wonder Could I Live There Anymore
TTITLE2=I Can´t Believe That You´ve Stopped Loving Me
TTITLE3=I´d Rather Love You
TTITLE4=I´m Just Me
TTITLE5=It´s Gonna Take A Little Bit Longer
TTITLE6=Amazing Love
TTITLE7=Then Who Am I
TTITLE8=Hope You´re Feeling Me
TTITLE9=My Eyes Can Only See As Far As You
TTITLE10=She´s Just An Old Love Turned Memory
TTITLE11=Someone Loves You Honey
TTITLE12=Where Do I Put Her Memory
TTITLE13=You´re My Jamaica
TTITLE14=Honky Tonk Blues
TTITLE15=You Win Again
TTITLE16=Never Been So Loved
TTITLE17=You´re So Good When You´re Bad
TTITLE18=Why Baby Why
TTITLE19=Night Games
EXTD=ID3G:   2
EXTT0=
EXTT1=
EXTT2=
EXTT3=
EXTT4=
EXTT5=
EXTT6=
EXTT7=
EXTT8=
EXTT9=
EXTT10=
EXTT11=
EXTT12=
EXTT13=
EXTT14=
EXTT15=
EXTT16=
EXTT17=
EXTT18=
EXTT19=
PLAYORDER=
